PathFileType	4	(X/Y/Z)	Kaydara	
DataRate	CameraRate	NumFrames	NumMarkers	Units	OrigDataRate	OrigDataStartFrame	OrigNumFrames	
120.00	120.00	4	72	mm	120.00	98	261	
Frame#	Time	Hips			RightUpLeg			RightLeg			RightFoot			RightFoot_End			LeftUpLeg			LeftLeg			LeftFoot			LeftFoot_End			Spine			Spine1			Spine2			Spine3			Neck			Head			Head_End			RightShoulder			RightArm			RightForeArm			RightHand			RightHandThumb1			RightHandThumb2			RightHandThumb3			RightHandThumb3_End			RightInHandIndex			RightHandIndex1			RightHandIndex2			RightHandIndex3			RightHandIndex3_End			RightInHandMiddle			RightHandMiddle1			RightHandMiddle2			RightHandMiddle3			RightHandMiddle3_End			RightInHandRing			RightHandRing1			RightHandRing2			RightHandRing3			RightHandRing3_End			RightInHandPinky			RightHandPinky1			RightHandPinky2			RightHandPinky3			RightHandPinky3_End			LeftShoulder			LeftArm			LeftForeArm			LeftHand			LeftHandThumb1			LeftHandThumb2			LeftHandThumb3			LeftHandThumb3_End			LeftInHandIndex			LeftHandIndex1			LeftHandIndex2			LeftHandIndex3			LeftHandIndex3_End			LeftInHandMiddle			LeftHandMiddle1			LeftHandMiddle2			LeftHandMiddle3			LeftHandMiddle3_End			LeftInHandRing			LeftHandRing1			LeftHandRing2			LeftHandRing3			LeftHandRing3_End			LeftInHandPinky			LeftHandPinky1			LeftHandPinky2			LeftHandPinky3			LeftHandPinky3_End			
		X1	Y1	Z1	X2	Y2	Z2	X3	Y3	Z3	X4	Y4	Z4	X5	Y5	Z5	X6	Y6	Z6	X7	Y7	Z7	X8	Y8	Z8	X9	Y9	Z9	X10	Y10	Z10	X11	Y11	Z11	X12	Y12	Z12	X13	Y13	Z13	X14	Y14	Z14	X15	Y15	Z15	X16	Y16	Z16	X17	Y17	Z17	X18	Y18	Z18	X19	Y19	Z19	X20	Y20	Z20	X21	Y21	Z21	X22	Y22	Z22	X23	Y23	Z23	X24	Y24	Z24	X25	Y25	Z25	X26	Y26	Z26	X27	Y27	Z27	X28	Y28	Z28	X29	Y29	Z29	X30	Y30	Z30	X31	Y31	Z31	X32	Y32	Z32	X33	Y33	Z33	X34	Y34	Z34	X35	Y35	Z35	X36	Y36	Z36	X37	Y37	Z37	X38	Y38	Z38	X39	Y39	Z39	X40	Y40	Z40	X41	Y41	Z41	X42	Y42	Z42	X43	Y43	Z43	X44	Y44	Z44	X45	Y45	Z45	X46	Y46	Z46	X47	Y47	Z47	X48	Y48	Z48	X49	Y49	Z49	X50	Y50	Z50	X51	Y51	Z51	X52	Y52	Z52	X53	Y53	Z53	X54	Y54	Z54	X55	Y55	Z55	X56	Y56	Z56	X57	Y57	Z57	X58	Y58	Z58	X59	Y59	Z59	X60	Y60	Z60	X61	Y61	Z61	X62	Y62	Z62	X63	Y63	Z63	X64	Y64	Z64	X65	Y65	Z65	X66	Y66	Z66	X67	Y67	Z67	X68	Y68	Z68	X69	Y69	Z69	X70	Y70	Z70	X71	Y71	Z71	X72	Y72	Z72	

98	0.808	2081.203	893.81699	129.612	2170.726131976309	901.6422944416273	93.57300934764314	2058.3474977202595	501.94532822775085	36.87707362535721	2041.137142323614	111.2907072367604	24.768312365497955	1926.4199283671262	42.46705021524898	164.06227461405047	2004.0494558524908	860.1035081044317	179.65591190337878	1898.478927659733	472.0455955090088	296.2224854031072	1780.8261866837297	80.90474892547014	465.8554452770255	1634.928545071848	35.91090196324889	351.5125563265716	2022.4163926939766	1013.2025008508532	77.64401506059043	1965.3854670073033	1074.1260803922469	28.27477950973779	1902.334780026518	1131.4569690554	-25.988577784724317	1837.5920521145333	1176.5188653437715	-82.55081124459242	1766.6483736509606	1225.9822609999594	-139.863449240433	1692.332724356625	1264.0355562227433	-183.71472553974968	1553.2404553629767	1341.278169469032	-195.92901439041324	1813.7810987256503	1225.169066431776	-135.38769572095515	1901.1992976013685	1278.837377820541	-202.40837680563888	2016.7099752491924	1075.6582849696001	-302.6934039789666	2206.9696330043967	992.2332090387249	-413.7965412573146	2217.0822526576803	1009.7529572554586	-434.76618820589744	2217.150654957639	1011.9130418889729	-463.9393429425607	2218.862633979181	1009.8763808677253	-483.8311143238565	2221.713634554102	1005.1493185987434	-500.0509456296448	2225.788532311449	999.2898332849077	-434.55844531922963	2252.873214420109	994.243173256005	-467.35801975969287	2262.041244344101	987.4044832363312	-493.4430912149642	2258.9700710505713	984.6028566355577	-509.2500714844883	2250.511794656698	983.2620009058382	-522.0568802630762	2228.912451958634	989.676562624448	-432.4174337647672	2257.0225240692675	979.5553326348652	-463.2501494208771	2267.3389178490897	970.836725702824	-491.32933216698234	2263.7834705568785	966.8538389449744	-510.2152041811708	2254.6014100791226	965.0936416945547	-524.1383955241698	2230.5429003882	983.0231954249526	-430.0384699101727	2257.485670843088	968.2051176042038	-455.51976337877653	2266.7510603348915	959.3377955492134	-479.55209116689565	2263.466819995665	954.8225207895791	-497.5344977931642	2254.9021949286953	952.8483606994204	-510.5146782491229	2230.7349339056436	975.4251925255677	-426.5775361270586	2255.9582282143906	957.1806791151964	-447.72728884496547	2263.686085308226	948.1661342888201	-466.17164624198426	2261.439767319382	943.9468492982463	-478.90118570859005	2253.938779088009	941.6652388502813	-490.176837916526	1766.6066009384635	1192.364449879052	-106.91160578502455	1699.4436978144424	1092.775865781177	-66.59080951014973	1913.1606100897195	1028.1122426704082	-192.86104162921788	2131.5716188157744	994.5107613199613	-309.50945051330507	2146.925229862058	1016.6802660837063	-321.7534252348458	2177.5441007544987	1025.5546432266342	-315.77881822016144	2200.924222847258	1028.1710398082623	-311.3139646471378	2222.1750421911215	1027.3035503766007	-307.33163040095025	2155.1627341695516	1006.4272544409916	-323.7686645111671	2201.209797478808	1009.307623659951	-335.847734795839	2236.16758803475	1008.7057535904701	-333.66600589559505	2254.251290254604	1009.5804093562227	-325.80853513449546	2266.757432776348	1011.1467461427404	-314.91971568229684	2159.293596335671	996.5103796815062	-322.0178010151802	2206.440067831148	993.9565098691821	-332.855340608705	2244.9853158756896	991.9786392389029	-330.19120801888664	2266.9942502226227	992.3999278444036	-320.57543162772225	2280.7713826278073	993.805593572348	-308.59496310811767	2161.030029300348	989.4343457970459	-320.580497352572	2204.769629143692	981.0140071029903	-329.3611649823699	2238.699742839277	977.9437676106442	-326.7311323022624	2260.1064395277317	977.6351573930053	-317.292388514315	2273.1444446006717	978.6180321952421	-305.9502153079598	2161.7522674177367	981.1659116833399	-317.72382106960083	2202.306691535063	968.3588554123069	-324.38229264159	2229.8069608767046	963.8365949085793	-321.75670845116946	2245.5808657160555	962.6132030096963	-314.62072896115285	2257.2223663890036	962.9093349076187	-304.4287642598169
99	0.817	2081.203	893.81699	129.612	2170.5989200584945	901.5241984533271	93.65959099962667	2058.068413241482	501.8113244717746	37.39099872060723	2041.3852620311154	111.33661876793745	25.074339252561852	1926.8269715496624	42.43564237560855	164.40584751598846	2004.1395476300036	860.213353019628	179.5901862068652	1898.5438953419134	472.16792619473443	296.17158494358995	1780.788479539644	81.16659387859046	466.02373051770144	1635.0788459882235	36.05109807852997	351.4714670217325	2022.589702480565	1013.2381905482055	77.5324747566076	1965.6471965062995	1074.20830573419	28.11382815240216	1902.6847028308666	1131.5964206797278	-26.19695141756879	1838.0204167147388	1176.7287838984719	-82.800772231389	1767.15672811392	1226.2636025241738	-140.15736541105565	1692.877394551114	1264.363000343452	-184.01646329695845	1553.7961008274112	1341.6276551613964	-196.17626078816394	1814.2370573823273	1225.4218739795376	-135.62521200426974	1901.6461695878827	1279.2928691916022	-202.29475797117865	2017.9262186239087	1076.9803503919231	-302.7501218788734	2208.3903728719097	994.3884490109023	-414.1248309726093	2218.6356575820055	1012.1326240321464	-435.0212324824407	2218.8332269195184	1014.4620863322563	-464.2893256786236	2220.6243517426215	1012.5304749239526	-484.2634677581874	2223.532090630285	1007.879947345275	-500.56587388411964	2227.3142747684915	1001.648937923376	-434.8522992685997	2254.5241073533375	996.8438498360649	-467.7147211744173	2263.785103676841	990.1459847811622	-493.9115869248016	2260.7740363652024	987.4086981825536	-509.80730443395265	2252.367073661608	986.1054428673788	-522.70053673258	2230.40472616814	991.9908637093052	-432.7565481218447	2258.6187623136207	982.0810271843146	-463.675023312907	2269.031783793985	973.50935976375	-491.8820472203763	2265.546546369409	969.6008675117263	-510.877786641634	2256.419505880474	967.8802410312127	-524.896909471612	2232.008229218915	985.2999175215223	-430.40738298842257	2259.0204751446863	970.6393767342312	-455.98972965659783	2268.3650040685648	961.8929108869945	-480.13933510941104	2265.1457827815325	957.4455665615884	-498.23082886211284	2256.631612765827	955.5067949840102	-511.3026800342487	2232.166412193393	977.6497060926051	-426.9834811991714	2257.4322478278423	959.518387036277	-448.2468501383967	2265.215241304165	950.5886768080211	-466.7938169981146	2263.012365946449	946.4131600877431	-479.60712802920585	2255.5537830147823	944.1595759664439	-490.96640941151475	1767.1146809230354	1192.629028270827	-107.23280451762714	1699.9061685433112	1093.1327785426195	-67.25842053965793	1913.6950938670127	1028.983603899275	-193.0189099257487	2132.10691862001	996.0647387433416	-309.47353325583344	2147.3296088742145	1018.5062233217901	-321.46378764855194	2177.7908841069147	1027.5672366251124	-315.2426982026751	2201.078162743011	1030.3181475269516	-310.62283498197604	2222.266048630956	1029.5666808360302	-306.52551543780737	2155.6221333436406	1008.3097982412736	-323.51600489184904	2201.5881240523863	1011.642677133216	-335.32296250435087	2236.4552230906293	1011.2737170587135	-332.9486606997415	2254.45624671515	1012.2093542827721	-324.97726789316783	2266.876218946314	1013.7696258811239	-313.99807037698264	2159.8001798293594	998.3856295236579	-321.81972562250513	2206.8931052948165	996.2692020147358	-332.4213772509987	2245.345834826049	994.5429492132175	-329.55519407130294	2267.2581152734388	995.0365969454305	-319.8058541188773	2280.9424650996234	996.4350356937629	-307.7283761757957	2161.5724569864337	991.293848036786	-320.42801773913664	2205.2964819516096	983.2546619091019	-329.0371170266158	2239.1526265096513	980.4004432022092	-326.2396063230755	2260.4696309721676	980.1598807186083	-316.6766123628551	2273.4220752181686	981.1351313907603	-305.2453991759937	2162.334875383764	982.9866513474265	-317.6310866936968	2202.901242596183	970.5086330348062	-324.16923687547893	2230.352742772328	966.1525558046421	-321.4237536387779	2246.0662897229035	964.9755080299271	-314.2040205670039	2257.634914194433	965.2629949736559	-303.9371365532073
100	0.825	2081.203	893.81699	129.612	2170.455378005357	901.4414808725976	93.74499351335449	2057.836037930859	501.71583331893527	37.725945057764626	2041.7957665154217	111.4238880819446	25.095507186172927	1927.4043592192556	42.44891327301563	164.46966115613517	2004.2566256640284	860.2894984658373	179.51931689339617	1898.6462362822713	472.22319324241215	296.0104429178498	1780.7272430950632	81.42282989778802	466.15136762272834	1635.1130579739524	36.34307900491561	351.4567228055594	2022.7157359769237	1013.2624157323123	77.44898699381991	1965.810238704978	1074.2505781976322	28.004750489315505	1902.8765743208362	1131.6582566967288	-26.325379750077303	1838.2258553150782	1176.811685625002	-82.9385461098601	1767.3763208884423	1226.3669229532532	-140.3034602282283	1693.0971642201807	1264.469941351452	-184.1425108924745	1554.034439713038	1341.77429024035	-196.2226101839745	1814.4090848587225	1225.5095183705391	-135.76033471676055	1901.8078788594478	1279.5015760643782	-202.15603417786437	2018.954022372109	1078.046878329478	-302.569053442586	2209.534196176478	996.3141968910084	-414.2804153953178	2219.9058601044253	1014.2758247447591	-435.1096366835861	2220.21383776458	1016.7725235211407	-464.47058781073946	2222.069854511923	1014.9445766811614	-484.5262857395482	2225.0214285143197	1010.3695206824386	-500.91113052157624	2228.552707111771	1003.7707303896257	-434.98350959742896	2255.8642017201723	999.1981935066137	-467.92142482681254	2265.1978836237877	992.6379976566697	-494.23262004513083	2262.234949503979	989.9654158250744	-510.213716005139	2253.869817888789	988.7016346062906	-523.1872606067409	2231.607082349369	994.0686037578063	-432.9340027102243	2259.900763460673	984.36176468154	-463.9511084752156	2270.3880111441104	975.9337263085491	-492.2888189271949	2266.9584074701625	972.1001327547219	-511.3904124902894	2257.875947768377	970.4211589489186	-525.4987989265094	2233.182426415571	987.3408077783068	-430.61508075809456	2260.2413772489267	972.8308145116611	-456.3106020133842	2269.6452777918043	964.2024654399527	-480.5800287628461	2266.4768899317633	959.8236175568182	-498.7767703837949	2258.0032987493382	957.9222297825983	-511.9340386554944	2233.305820466876	979.6397470513283	-427.2278001868623	2258.592820382053	961.6159344029021	-448.61589073846864	2266.414847336735	952.7691297660624	-467.26754609817067	2264.2449338596034	948.6379225108162	-480.16184936685914	2256.8199284460866	946.4142037526025	-491.5992326407575	1767.372372118046	1192.7362752369684	-107.38354121584811	1700.1385491650128	1093.35135121901	-67.70367388012824	1913.9561503432938	1029.6282477534214	-192.95018201251324	2132.32541531641	997.3303656662724	-309.1853659736801	2147.350945283918	1020.0697315222989	-320.8860534582919	2177.6069611716566	1029.349077024322	-314.3907641102141	2200.7751744812895	1032.2610157199558	-309.5972623011504	2221.8842279648993	1031.6514717108491	-305.3700027889526	2155.7167819251044	1009.9496478108064	-322.97312759611265	2201.556917528297	1013.8148980454145	-334.4578416144566	2236.3054299328655	1013.7265552885046	-331.862738943088	2254.206021766943	1014.7387039489697	-323.7668686965637	2266.524856165373	1016.2962334150378	-312.69327856382324	2159.962681329834	1000.027102515966	-321.33532500402174	2206.9695614983643	998.4308368331235	-331.65429727530244	2245.302207365898	997.0091684399332	-328.5559462460294	2267.0977969470837	997.5943432255875	-318.66063825815746	2280.6736579342974	998.9894019668818	-306.4819157315664	2161.7865516352404	992.9239604825173	-319.99316978911827	2205.479555436727	985.3442314183329	-328.391985739576	2239.240697107226	982.7529952125795	-325.4015207943289	2260.450272347298	982.5993951699314	-315.7027231672706	2273.303140633322	983.5708397337129	-304.1786826908539	2162.6085692587135	984.5797601558726	-317.26257194453046	2203.184684282227	972.5041280355049	-323.6486934599369	2230.575307844775	968.352737087292	-320.7642895003241	2246.217848269025	967.2362658908623	-313.4530393382728	2257.7024998460674	967.5187419801255	-303.1082661043552
101	0.833	2081.203	893.81699	129.612	2170.293499304119	901.3808036868686	93.81777579878538	2057.6377203999223	501.6393243178903	37.954850168239155	2042.2855585596465	111.53579277774668	24.99498399900398	1928.0581884261337	42.48752976218694	164.40704841662983	2004.400167704383	860.3423455739028	179.45146638778903	1898.7656614450632	472.25606618709344	295.8443631288785	1780.7162694971742	81.56150483540443	466.100631810135	1635.0991987100072	36.63800722778058	351.34882869025216	2022.8076736393664	1013.2883920122214	77.40891142462768	1965.9212501787883	1074.2985578418688	27.96458799908014	1902.9979839756982	1131.7304180357007	-26.359069061894832	1838.3450609417262	1176.9118915932052	-82.95873235121817	1767.493196744646	1226.4932055682018	-140.30739307771483	1693.2107191904813	1264.6086806770875	-184.11226058078415	1554.1617905450755	1341.9399248219513	-196.1565787325434	1814.475480230684	1225.6223562767593	-135.75528496924935	1901.8568361607101	1279.6933400352314	-201.89696908134624	2019.5656709500565	1078.7538442486323	-302.1829822335947	2210.184896370996	997.9396016854147	-414.26874253687606	2220.6750262921173	1016.1126165245842	-435.0353486456632	2221.083393679465	1018.7705686966196	-464.48504585221235	2222.9972019445745	1017.0424236074016	-484.6189158390377	2225.9865837219395	1012.5398794052584	-501.08293343445604	2229.2889593074256	1005.5866354667827	-434.951366797345	2256.6877035006846	1001.2393505697182	-467.96540990122014	2266.0838941075544	994.8117984807304	-494.38717318298825	2263.1639110101473	992.2011456930226	-510.4493823105727	2254.837086974464	990.9747746115469	-523.498408621547	2232.3074177952385	995.8415389433351	-432.94646670546734	2260.666771964842	986.3311653352787	-464.061938023212	2271.2172112094504	978.0414374346194	-492.526009329766	2267.8370173715457	974.2794732013703	-511.72820365336486	2258.7953011924246	972.639933840305	-525.9205128871923	2233.8550822427455	989.0778454463069	-430.6566550296926	2260.9486234523083	974.7133688498359	-456.4642432708325	2270.4023681136578	966.1986841527912	-480.84949631439207	2267.2788614427895	961.885273636419	-499.14629508362646	2258.842262785751	960.0192314710267	-512.3839022348963	2233.9446731840308	981.3272453222031	-427.304361902505	2259.242322405356	963.4071283247554	-448.81528329334276	2267.095949060178	954.639966894253	-467.56807432031843	2264.9547499481205	950.5509866748646	-480.53941612317595	2257.560198026304	948.3554096819404	-492.0503027945505	1767.5414080675473	1192.8610453114952	-107.40676941528987	1700.3034454602926	1093.606580152275	-67.98440710157605	1914.0487362807246	1030.238667797879	-192.8330643476868	2132.3391283538376	998.5007976289371	-308.8164725111231	2147.3076076761067	1021.449463919782	-320.3283362741507	2177.4504953735095	1030.8577598687166	-313.64024857506035	2200.546345676215	1033.8592793202922	-308.7246184602571	2221.6005636661785	1033.3242247090077	-304.40592585270036	2155.698227350063	1011.3597623116233	-322.4429042851298	2201.4824824771345	1015.5386054102376	-333.7203682346921	2236.1546594801516	1015.6044956460192	-330.97400933743586	2253.986341117499	1016.6532524731017	-322.7864378210698	2266.2336727459083	1018.2010969078646	-311.63852721617894	2159.961747864795	1001.4226554083186	-320.8449879217193	2206.9236684058387	1000.1243994351539	-330.9833918765951	2245.1754720733657	998.8680121082327	-327.72591568894217	2266.889105814258	999.4959013056449	-317.72282031759596	2280.387304046783	1000.8796577370578	-305.4641572355433	2161.7999046204977	994.3019337758981	-319.5364107063504	2205.4662181952394	986.9760994149084	-327.8028686745059	2239.1594792087844	984.5253590914594	-324.68005139022944	2260.2913736027085	984.4110711171354	-314.8806508523306	2273.07186834461	985.3709914173123	-303.2830417589409	2162.6367664794975	985.9227873701178	-316.8496544535137	2203.19891686371	974.0609669197181	-323.1417079828457	2230.539324608608	970.0154083263346	-320.1617906977854	2246.127205061279	968.9243850721646	-312.7822216916368	2257.548897678421	969.1947971100801	-302.3751951699627
